<svg width="17" height="16" viewBox="0 0 17 16" fill="none" xmlns="http://www.w3.org/2000/svg">
<path fill-rule="evenodd" clip-rule="evenodd" d="M9.5 1C9.5 0.447715 9.05228 0 8.5 0C7.94772 0 7.5 0.447715 7.5 1V7.58579L5.20711 5.29289C4.81658 4.90237 4.18342 4.90237 3.79289 5.29289C3.40237 5.68342 3.40237 6.31658 3.79289 6.70711L8.5 11.4142L13.2071 6.70711C13.5976 6.31658 13.5976 5.68342 13.2071 5.29289C12.8166 4.90237 12.1834 4.90237 11.7929 5.29289L9.5 7.58579V1ZM3 8C3 7.17157 2.32843 6.5 1.5 6.5C0.671573 6.5 0 7.17157 0 8V15.5H17V8C17 7.17157 16.3284 6.5 15.5 6.5C14.6716 6.5 14 7.17157 14 8V12.5H3V8Z" fill="black"/>
</svg>
