<svg width="52" height="54" viewBox="0 0 52 54" fill="none" xmlns="http://www.w3.org/2000/svg">
<path fill-rule="evenodd" clip-rule="evenodd" d="M0 11.4689C3.26715 7.98852 7.1867 5.18595 11.5349 3.22119C15.883 1.25643 20.5746 0.167971 25.3418 0.017952C30.109 -0.132061 34.8584 0.6593 39.3189 2.34686C43.7793 4.03442 47.8635 6.58513 51.3381 9.85336L47.1288 14.3375C44.242 11.6222 40.8488 9.50307 37.1431 8.10103C33.4373 6.699 29.4915 6.04153 25.5309 6.16616C21.5703 6.2908 17.6724 7.1951 14.06 8.82743C10.4475 10.4598 7.19112 12.7882 4.47675 15.6797L0 11.4689ZM8.57451 19.534C10.7829 17.1815 13.4323 15.2871 16.3713 13.9591C19.3104 12.631 22.4816 11.8953 25.7039 11.7939C28.9262 11.6925 32.1365 12.2274 35.1515 13.3681C38.1665 14.5088 40.9271 16.2329 43.2757 18.442L39.0942 22.8964C37.3295 21.2366 35.2554 19.9412 32.9901 19.0842C30.7248 18.2272 28.3128 17.8253 25.8917 17.9014C23.4706 17.9776 21.088 18.5304 18.8797 19.5282C16.6715 20.5261 14.6809 21.9494 13.0217 23.7169L8.57451 19.534ZM26.5242 47.6805C28.9528 47.6805 31.2273 47.041 33.1759 45.9259L39.8289 52.3325C41.092 53.5488 43.1447 53.5488 44.4091 52.3325C45.6735 51.1149 45.6735 49.1383 44.4091 47.9207L37.7574 41.5154C38.9141 39.6389 39.5795 37.4487 39.5795 35.1089C39.5795 28.1702 33.7298 22.5372 26.5242 22.5372C19.3186 22.5372 13.4689 28.1702 13.4689 35.1089C13.4689 42.0475 19.3186 47.6805 26.5242 47.6805ZM33.1007 35.1089C33.1007 31.6142 30.1545 28.776 26.5242 28.776C22.8938 28.776 19.9464 31.6142 19.9464 35.1089C19.9464 38.6048 22.8938 41.443 26.5242 41.443C30.1545 41.443 33.1007 38.6048 33.1007 35.1089Z" fill="#1483C6"/>
</svg>
